<?xml version="1.0" ?><svg height="48px" version="1.1" viewBox="0 0 48 48" width="48px" xmlns="http://www.w3.org/2000/svg" xmlns:sketch="http://www.bohemiancoding.com/sketch/ns" xmlns:xlink="http://www.w3.org/1999/xlink"><title/><defs/><g fill="none" fill-rule="evenodd" id="shadow" stroke="none" stroke-width="1"><g id="paypal"><path d="M24,48 C37.2548347,48 48,37.2548347 48,24 C48,10.7451653 37.2548347,0 24,0 C10.7451653,0 0,10.7451653 0,24 C0,37.2548347 10.7451653,48 24,48 Z" fill="#346DA6"/><path d="M0.402057344,28.3979427 C1.79272276,35.9071466 6.67931278,42.1896093 13.3103315,45.4938349 L33.9039712,24.9001952 L35.4196625,21.4907555 L35.7441406,17.5940105 L33.0209625,21.6852867 C33.0209625,21.6852867 33.4494019,15.8909508 33.2802094,15.6302082 C31.8136803,13.3701405 27.6822906,13.0244797 27.6822906,13.0244797 L17.5585937,11.2414062 L0.402057344,28.3979427 Z" fill="#000000" fill-opacity="0.400000006"/><path d="M35.7076714,17.5384615 C35.681312,20.4451248 34.4000186,22.8252627 31.8884312,24.6037362 C29.4278435,26.3462977 25.9856566,27.2319433 21.6569934,27.2358107 L20.6822706,27.2358107 C20.3493406,27.2358107 19.9682761,27.5258693 19.8977935,27.8330552 L18.7213644,32.7204042 C18.4715236,33.7833999 17.3862062,34.6187686 16.2516082,34.6187686 L12.9864874,34.6187686 L12.9566898,34.7436319 C12.7910844,35.4314852 13.253519,36 13.9892886,36 L17.3970937,36 C18.1340094,36 18.8640487,35.44585 19.0296541,34.7436319 L20.2043642,29.8645703 C20.3608012,29.182242 21.0891214,28.6175946 21.8277561,28.6175946 L22.8019059,28.6175946 C26.9695479,28.6137271 30.2025791,27.7916182 32.5256398,26.1462954 C34.8452623,24.5037351 36.0050736,22.3274669 35.9999163,19.6357232 C36.0033545,18.8467639 35.9007822,18.1533857 35.7076714,17.5384615 Z M26.2260981,21.1160152 C25.2467724,21.807024 23.888723,22.1538462 22.1257181,22.1538462 L21.3289229,22.1538462 C20.6266721,22.1538462 20.1834616,21.6162192 20.3386672,20.9568355 L21.3169,16.8908996 C21.4655476,16.2362597 22.1667055,15.6923077 22.8689564,15.6986327 L23.9318964,15.6923077 C25.1746345,15.6923077 26.1189843,15.897871 26.7562019,16.3053079 C27.3841289,16.7022031 27.7032842,17.3289075 27.6918077,18.1722439 C27.7103887,19.4409382 27.2108888,20.4234252 26.2260981,21.1160152 Z M34.4270163,14.4373992 C34.0035478,13.6246172 33.3686316,12.964584 32.5583684,12.4663182 C31.7177348,11.9556521 30.7401472,11.6044987 29.6003923,11.3920029 C28.4537612,11.1902166 27.1145922,11.0910143 25.5777282,11.0769231 L18.4641452,11.0819959 C17.7249377,11.0910143 17.000629,11.6608636 16.8298663,12.3603522 L12.0336129,32.872108 C11.8680075,33.5738512 12.330442,34.1538462 13.0662113,34.1538462 L16.4740152,34.1538462 C17.2109306,34.1538462 17.9409697,33.5885061 18.1065751,32.872108 L19.2812847,27.8945225 C19.4377216,27.1984158 20.1660416,26.6223663 20.9046761,26.6223663 L21.8788255,26.6223663 C26.046466,26.6184208 29.2794961,25.7797109 31.6025559,24.1011637 C33.9221777,22.4254349 35.0819885,20.2052209 35.0768312,17.4591223 C35.0819885,16.2523495 34.8699678,15.2434175 34.4270163,14.4373992" fill="#FFFFFF"/></g></g></svg>